# xmcd
#
# Track frame offsets: 
#        150
#        16990
#        38429
#        63267
#        82490
#        119394
#        138700
#        153247
#        184284
#        201486
#        221593
#        243365
#
# Disc length: 3571 seconds
#
# Revision: 0
# Processed by: cddbd v1.5.2PL0 Copyright (c) Steve Scherf et al.
# Submitted via: ExactAudioCopyFreeDBPlugin 1.0
#
DISCID=ae0df10c
DTITLE=Sugar Ray and the Bluetones - Living Tear To Tear
DYEAR=2014
DGENRE=Blues
TTITLE0=Rat Trap
TTITLE1=Here We Go
TTITLE2=Things Could Be Worse
TTITLE3=Living Tear To Tear
TTITLE4=Misery
TTITLE5=It's Never As Bad As It Looks
TTITLE6=Short Ribs
TTITLE7=I Dreamed Last Night
TTITLE8=Ninety Nine
TTITLE9=Our Story
TTITLE10=Hungry But Happy
TTITLE11=Nothing But the Devil
EXTD=
EXTT0=
EXTT1=
EXTT2=
EXTT3=
EXTT4=
EXTT5=
EXTT6=
EXTT7=
EXTT8=
EXTT9=
EXTT10=
EXTT11=
PLAYORDER=
